<mxfile host="app.diagrams.net" agent="Mozilla/5.0 (Windows NT 10.0; Win64; x64) AppleWebKit/537.36 (KHTML, like Gecko) Chrome/128.0.0.0 Safari/537.36" version="24.7.13">
  <diagram id="C5RBs43oDa-KdzZeNtuy" name="Page-1">
    <mxGraphModel dx="1843" dy="746" grid="1" gridSize="10" guides="1" tooltips="1" connect="1" arrows="1" fold="1" page="1" pageScale="1" pageWidth="827" pageHeight="1169" math="0" shadow="0">
      <root>
        <mxCell id="WIyWlLk6GJQsqaUBKTNV-0" />
        <mxCell id="WIyWlLk6GJQsqaUBKTNV-1" parent="WIyWlLk6GJQsqaUBKTNV-0" />
        <mxCell id="ms_M9x0mnWj7V4d8YSxd-0" value="Calculadora" style="swimlane;fontStyle=1;align=center;verticalAlign=top;childLayout=stackLayout;horizontal=1;startSize=26;horizontalStack=0;resizeParent=1;resizeParentMax=0;resizeLast=0;collapsible=1;marginBottom=0;whiteSpace=wrap;html=1;" parent="WIyWlLk6GJQsqaUBKTNV-1" vertex="1">
          <mxGeometry x="140" y="40" width="160" height="170" as="geometry" />
        </mxCell>
        <mxCell id="ms_M9x0mnWj7V4d8YSxd-1" value="-Valor 1: double&lt;br&gt;&lt;div&gt;-Valor 2: double&lt;/div&gt;&lt;div&gt;&lt;br&gt;&lt;/div&gt;" style="text;strokeColor=none;fillColor=none;align=left;verticalAlign=top;spacingLeft=4;spacingRight=4;overflow=hidden;rotatable=0;points=[[0,0.5],[1,0.5]];portConstraint=eastwest;whiteSpace=wrap;html=1;" parent="ms_M9x0mnWj7V4d8YSxd-0" vertex="1">
          <mxGeometry y="26" width="160" height="44" as="geometry" />
        </mxCell>
        <mxCell id="ms_M9x0mnWj7V4d8YSxd-2" value="" style="line;strokeWidth=1;fillColor=none;align=left;verticalAlign=middle;spacingTop=-1;spacingLeft=3;spacingRight=3;rotatable=0;labelPosition=right;points=[];portConstraint=eastwest;strokeColor=inherit;" parent="ms_M9x0mnWj7V4d8YSxd-0" vertex="1">
          <mxGeometry y="70" width="160" height="8" as="geometry" />
        </mxCell>
        <mxCell id="ms_M9x0mnWj7V4d8YSxd-3" value="+Sumar(): double&lt;div&gt;+Restar(): double&lt;/div&gt;&lt;div&gt;+Multiplicar(): double&lt;/div&gt;&lt;div&gt;+Dividir(): double&lt;/div&gt;&lt;div&gt;+Residuo(): double&lt;/div&gt;" style="text;strokeColor=none;fillColor=none;align=left;verticalAlign=top;spacingLeft=4;spacingRight=4;overflow=hidden;rotatable=0;points=[[0,0.5],[1,0.5]];portConstraint=eastwest;whiteSpace=wrap;html=1;" parent="ms_M9x0mnWj7V4d8YSxd-0" vertex="1">
          <mxGeometry y="78" width="160" height="92" as="geometry" />
        </mxCell>
        <mxCell id="ms_M9x0mnWj7V4d8YSxd-4" value="AUTOMOVIL" style="swimlane;fontStyle=1;align=center;verticalAlign=top;childLayout=stackLayout;horizontal=1;startSize=26;horizontalStack=0;resizeParent=1;resizeParentMax=0;resizeLast=0;collapsible=1;marginBottom=0;whiteSpace=wrap;html=1;" parent="WIyWlLk6GJQsqaUBKTNV-1" vertex="1">
          <mxGeometry x="490" y="30" width="270" height="180" as="geometry" />
        </mxCell>
        <mxCell id="ms_M9x0mnWj7V4d8YSxd-5" value="-Velocidad: double&lt;div&gt;-Tiempo: double&lt;/div&gt;" style="text;strokeColor=none;fillColor=none;align=left;verticalAlign=top;spacingLeft=4;spacingRight=4;overflow=hidden;rotatable=0;points=[[0,0.5],[1,0.5]];portConstraint=eastwest;whiteSpace=wrap;html=1;" parent="ms_M9x0mnWj7V4d8YSxd-4" vertex="1">
          <mxGeometry y="26" width="270" height="44" as="geometry" />
        </mxCell>
        <mxCell id="ms_M9x0mnWj7V4d8YSxd-6" value="" style="line;strokeWidth=1;fillColor=none;align=left;verticalAlign=middle;spacingTop=-1;spacingLeft=3;spacingRight=3;rotatable=0;labelPosition=right;points=[];portConstraint=eastwest;strokeColor=inherit;" parent="ms_M9x0mnWj7V4d8YSxd-4" vertex="1">
          <mxGeometry y="70" width="270" height="8" as="geometry" />
        </mxCell>
        <mxCell id="ms_M9x0mnWj7V4d8YSxd-7" value="+ &lt;span class=&quot;hljs-title function_ invoke__&quot;&gt;Automovil&lt;/span&gt;(&lt;span class=&quot;hljs-attr&quot;&gt;velocidad&lt;/span&gt;: &lt;span class=&quot;hljs-keyword&quot;&gt;double&lt;/span&gt;, &lt;span class=&quot;hljs-attr&quot;&gt;tiempo&lt;/span&gt;: &lt;span class=&quot;hljs-keyword&quot;&gt;double&lt;/span&gt;) |&lt;br/&gt;| + &lt;span class=&quot;hljs-title function_ invoke__&quot;&gt;setVelocidad&lt;/span&gt;(&lt;span class=&quot;hljs-attr&quot;&gt;velocidad&lt;/span&gt;: &lt;span class=&quot;hljs-keyword&quot;&gt;double&lt;/span&gt;): &lt;span class=&quot;hljs-keyword&quot;&gt;void&lt;/span&gt;  |&lt;br/&gt;| + &lt;span class=&quot;hljs-title function_ invoke__&quot;&gt;setTiempo&lt;/span&gt;(&lt;span class=&quot;hljs-attr&quot;&gt;tiempo&lt;/span&gt;: &lt;span class=&quot;hljs-keyword&quot;&gt;double&lt;/span&gt;): &lt;span class=&quot;hljs-keyword&quot;&gt;void&lt;/span&gt;        |&lt;br/&gt;| + &lt;span class=&quot;hljs-title function_ invoke__&quot;&gt;getVelocidad&lt;/span&gt;(): &lt;span class=&quot;hljs-keyword&quot;&gt;double&lt;/span&gt;                 |&lt;br/&gt;| + &lt;span class=&quot;hljs-title function_ invoke__&quot;&gt;getTiempo&lt;/span&gt;(): &lt;span class=&quot;hljs-keyword&quot;&gt;double&lt;/span&gt;                    |&lt;br/&gt;| + &lt;span class=&quot;hljs-title function_ invoke__&quot;&gt;calcularDistancia&lt;/span&gt;(): &lt;span class=&quot;hljs-keyword&quot;&gt;double&lt;/span&gt;" style="text;strokeColor=none;fillColor=none;align=left;verticalAlign=top;spacingLeft=4;spacingRight=4;overflow=hidden;rotatable=0;points=[[0,0.5],[1,0.5]];portConstraint=eastwest;whiteSpace=wrap;html=1;" parent="ms_M9x0mnWj7V4d8YSxd-4" vertex="1">
          <mxGeometry y="78" width="270" height="102" as="geometry" />
        </mxCell>
        <mxCell id="MwxW_SRy3hBTs7w0GwRC-4" value="Estudiante" style="swimlane;fontStyle=1;align=center;verticalAlign=top;childLayout=stackLayout;horizontal=1;startSize=26;horizontalStack=0;resizeParent=1;resizeParentMax=0;resizeLast=0;collapsible=1;marginBottom=0;whiteSpace=wrap;html=1;" parent="WIyWlLk6GJQsqaUBKTNV-1" vertex="1">
          <mxGeometry x="870" y="20" width="330" height="240" as="geometry" />
        </mxCell>
        <mxCell id="MwxW_SRy3hBTs7w0GwRC-5" value="&amp;nbsp;- nota1: &lt;span class=&quot;hljs-keyword&quot;&gt;double&lt;/span&gt;                           |&lt;br/&gt;| - nota2: &lt;span class=&quot;hljs-keyword&quot;&gt;double&lt;/span&gt;                           |&lt;br/&gt;| - nota3: &lt;span class=&quot;hljs-keyword&quot;&gt;double&lt;/span&gt;" style="text;strokeColor=none;fillColor=none;align=left;verticalAlign=top;spacingLeft=4;spacingRight=4;overflow=hidden;rotatable=0;points=[[0,0.5],[1,0.5]];portConstraint=eastwest;whiteSpace=wrap;html=1;" parent="MwxW_SRy3hBTs7w0GwRC-4" vertex="1">
          <mxGeometry y="26" width="330" height="64" as="geometry" />
        </mxCell>
        <mxCell id="MwxW_SRy3hBTs7w0GwRC-6" value="" style="line;strokeWidth=1;fillColor=none;align=left;verticalAlign=middle;spacingTop=-1;spacingLeft=3;spacingRight=3;rotatable=0;labelPosition=right;points=[];portConstraint=eastwest;strokeColor=inherit;" parent="MwxW_SRy3hBTs7w0GwRC-4" vertex="1">
          <mxGeometry y="90" width="330" height="8" as="geometry" />
        </mxCell>
        <mxCell id="MwxW_SRy3hBTs7w0GwRC-7" value="&amp;nbsp;+ &lt;span class=&quot;hljs-title function_ invoke__&quot;&gt;Estudiante&lt;/span&gt;(&lt;span class=&quot;hljs-attr&quot;&gt;nota1&lt;/span&gt;: &lt;span class=&quot;hljs-keyword&quot;&gt;double&lt;/span&gt;, &lt;span class=&quot;hljs-attr&quot;&gt;nota2&lt;/span&gt;: &lt;span class=&quot;hljs-keyword&quot;&gt;double&lt;/span&gt;, &lt;span class=&quot;hljs-attr&quot;&gt;nota3&lt;/span&gt;: &lt;span class=&quot;hljs-keyword&quot;&gt;double&lt;/span&gt;) |&lt;br/&gt;| + &lt;span class=&quot;hljs-title function_ invoke__&quot;&gt;setNota1&lt;/span&gt;(&lt;span class=&quot;hljs-attr&quot;&gt;nota1&lt;/span&gt;: &lt;span class=&quot;hljs-keyword&quot;&gt;double&lt;/span&gt;): &lt;span class=&quot;hljs-keyword&quot;&gt;void&lt;/span&gt;            |&lt;br/&gt;| + &lt;span class=&quot;hljs-title function_ invoke__&quot;&gt;setNota2&lt;/span&gt;(&lt;span class=&quot;hljs-attr&quot;&gt;nota2&lt;/span&gt;: &lt;span class=&quot;hljs-keyword&quot;&gt;double&lt;/span&gt;): &lt;span class=&quot;hljs-keyword&quot;&gt;void&lt;/span&gt;            |&lt;br/&gt;| + &lt;span class=&quot;hljs-title function_ invoke__&quot;&gt;setNota3&lt;/span&gt;(&lt;span class=&quot;hljs-attr&quot;&gt;nota3&lt;/span&gt;: &lt;span class=&quot;hljs-keyword&quot;&gt;double&lt;/span&gt;): &lt;span class=&quot;hljs-keyword&quot;&gt;void&lt;/span&gt;            |&lt;br/&gt;| + &lt;span class=&quot;hljs-title function_ invoke__&quot;&gt;getNota1&lt;/span&gt;(): &lt;span class=&quot;hljs-keyword&quot;&gt;double&lt;/span&gt;                      |&lt;br/&gt;| + &lt;span class=&quot;hljs-title function_ invoke__&quot;&gt;getNota2&lt;/span&gt;(): &lt;span class=&quot;hljs-keyword&quot;&gt;double&lt;/span&gt;                      |&lt;br/&gt;| + &lt;span class=&quot;hljs-title function_ invoke__&quot;&gt;getNota3&lt;/span&gt;(): &lt;span class=&quot;hljs-keyword&quot;&gt;double&lt;/span&gt;                      |&lt;br/&gt;| + &lt;span class=&quot;hljs-title function_ invoke__&quot;&gt;calcularPromedio&lt;/span&gt;(): &lt;span class=&quot;hljs-keyword&quot;&gt;double&lt;/span&gt;" style="text;strokeColor=none;fillColor=none;align=left;verticalAlign=top;spacingLeft=4;spacingRight=4;overflow=hidden;rotatable=0;points=[[0,0.5],[1,0.5]];portConstraint=eastwest;whiteSpace=wrap;html=1;" parent="MwxW_SRy3hBTs7w0GwRC-4" vertex="1">
          <mxGeometry y="98" width="330" height="142" as="geometry" />
        </mxCell>
        <mxCell id="MwxW_SRy3hBTs7w0GwRC-8" value="Concursante" style="swimlane;fontStyle=1;align=center;verticalAlign=top;childLayout=stackLayout;horizontal=1;startSize=26;horizontalStack=0;resizeParent=1;resizeParentMax=0;resizeLast=0;collapsible=1;marginBottom=0;whiteSpace=wrap;html=1;" parent="WIyWlLk6GJQsqaUBKTNV-1" vertex="1">
          <mxGeometry x="30" y="320" width="360" height="250" as="geometry" />
        </mxCell>
        <mxCell id="MwxW_SRy3hBTs7w0GwRC-9" value="- respuestasCorrectas: &lt;span class=&quot;hljs-keyword&quot;&gt;int&lt;/span&gt;&amp;nbsp;&lt;br&gt;| - respuestasIncorrectas: &lt;span class=&quot;hljs-keyword&quot;&gt;int&lt;/span&gt;&amp;nbsp;&lt;br&gt;| - respuestasEnBlanco: &lt;span class=&quot;hljs-keyword&quot;&gt;int&lt;/span&gt;" style="text;strokeColor=none;fillColor=none;align=left;verticalAlign=top;spacingLeft=4;spacingRight=4;overflow=hidden;rotatable=0;points=[[0,0.5],[1,0.5]];portConstraint=eastwest;whiteSpace=wrap;html=1;" parent="MwxW_SRy3hBTs7w0GwRC-8" vertex="1">
          <mxGeometry y="26" width="360" height="64" as="geometry" />
        </mxCell>
        <mxCell id="MwxW_SRy3hBTs7w0GwRC-10" value="" style="line;strokeWidth=1;fillColor=none;align=left;verticalAlign=middle;spacingTop=-1;spacingLeft=3;spacingRight=3;rotatable=0;labelPosition=right;points=[];portConstraint=eastwest;strokeColor=inherit;" parent="MwxW_SRy3hBTs7w0GwRC-8" vertex="1">
          <mxGeometry y="90" width="360" height="8" as="geometry" />
        </mxCell>
        <mxCell id="MwxW_SRy3hBTs7w0GwRC-11" value="+ &lt;span class=&quot;hljs-title function_ invoke__&quot;&gt;Concursante&lt;/span&gt;(&lt;span class=&quot;hljs-attr&quot;&gt;respuestasCorrectas&lt;/span&gt;: &lt;span class=&quot;hljs-keyword&quot;&gt;int&lt;/span&gt;, &lt;span class=&quot;hljs-attr&quot;&gt;respuestasIncorrectas&lt;/span&gt;: &lt;span class=&quot;hljs-keyword&quot;&gt;int&lt;/span&gt;, &lt;span class=&quot;hljs-attr&quot;&gt;respuestasEnBlanco&lt;/span&gt;: &lt;span class=&quot;hljs-keyword&quot;&gt;int&lt;/span&gt;) |&lt;br/&gt;| + &lt;span class=&quot;hljs-title function_ invoke__&quot;&gt;setRespuestasCorrectas&lt;/span&gt;(&lt;span class=&quot;hljs-attr&quot;&gt;respuestasCorrectas&lt;/span&gt;: &lt;span class=&quot;hljs-keyword&quot;&gt;int&lt;/span&gt;): &lt;span class=&quot;hljs-keyword&quot;&gt;void&lt;/span&gt; |&lt;br/&gt;| + &lt;span class=&quot;hljs-title function_ invoke__&quot;&gt;setRespuestasIncorrectas&lt;/span&gt;(&lt;span class=&quot;hljs-attr&quot;&gt;respuestasIncorrectas&lt;/span&gt;: &lt;span class=&quot;hljs-keyword&quot;&gt;int&lt;/span&gt;): &lt;span class=&quot;hljs-keyword&quot;&gt;void&lt;/span&gt; |&lt;br/&gt;| + &lt;span class=&quot;hljs-title function_ invoke__&quot;&gt;setRespuestasEnBlanco&lt;/span&gt;(&lt;span class=&quot;hljs-attr&quot;&gt;respuestasEnBlanco&lt;/span&gt;: &lt;span class=&quot;hljs-keyword&quot;&gt;int&lt;/span&gt;): &lt;span class=&quot;hljs-keyword&quot;&gt;void&lt;/span&gt; |&lt;br/&gt;| + &lt;span class=&quot;hljs-title function_ invoke__&quot;&gt;getRespuestasCorrectas&lt;/span&gt;(): &lt;span class=&quot;hljs-keyword&quot;&gt;int&lt;/span&gt;          |&lt;br/&gt;| + &lt;span class=&quot;hljs-title function_ invoke__&quot;&gt;getRespuestasIncorrectas&lt;/span&gt;(): &lt;span class=&quot;hljs-keyword&quot;&gt;int&lt;/span&gt;        |&lt;br/&gt;| + &lt;span class=&quot;hljs-title function_ invoke__&quot;&gt;getRespuestasEnBlanco&lt;/span&gt;(): &lt;span class=&quot;hljs-keyword&quot;&gt;int&lt;/span&gt;           |&lt;br/&gt;| + &lt;span class=&quot;hljs-title function_ invoke__&quot;&gt;calcularPuntaje&lt;/span&gt;(): &lt;span class=&quot;hljs-keyword&quot;&gt;int&lt;/span&gt;                 |" style="text;strokeColor=none;fillColor=none;align=left;verticalAlign=top;spacingLeft=4;spacingRight=4;overflow=hidden;rotatable=0;points=[[0,0.5],[1,0.5]];portConstraint=eastwest;whiteSpace=wrap;html=1;" parent="MwxW_SRy3hBTs7w0GwRC-8" vertex="1">
          <mxGeometry y="98" width="360" height="152" as="geometry" />
        </mxCell>
        <mxCell id="MwxW_SRy3hBTs7w0GwRC-12" value="Carta" style="swimlane;fontStyle=1;align=center;verticalAlign=top;childLayout=stackLayout;horizontal=1;startSize=26;horizontalStack=0;resizeParent=1;resizeParentMax=0;resizeLast=0;collapsible=1;marginBottom=0;whiteSpace=wrap;html=1;" parent="WIyWlLk6GJQsqaUBKTNV-1" vertex="1">
          <mxGeometry x="550" y="330" width="210" height="210" as="geometry" />
        </mxCell>
        <mxCell id="MwxW_SRy3hBTs7w0GwRC-13" value="| - palo: String                   |&lt;br/&gt;| - valor: String                  |" style="text;strokeColor=none;fillColor=none;align=left;verticalAlign=top;spacingLeft=4;spacingRight=4;overflow=hidden;rotatable=0;points=[[0,0.5],[1,0.5]];portConstraint=eastwest;whiteSpace=wrap;html=1;" parent="MwxW_SRy3hBTs7w0GwRC-12" vertex="1">
          <mxGeometry y="26" width="210" height="34" as="geometry" />
        </mxCell>
        <mxCell id="MwxW_SRy3hBTs7w0GwRC-14" value="" style="line;strokeWidth=1;fillColor=none;align=left;verticalAlign=middle;spacingTop=-1;spacingLeft=3;spacingRight=3;rotatable=0;labelPosition=right;points=[];portConstraint=eastwest;strokeColor=inherit;" parent="MwxW_SRy3hBTs7w0GwRC-12" vertex="1">
          <mxGeometry y="60" width="210" height="28" as="geometry" />
        </mxCell>
        <mxCell id="MwxW_SRy3hBTs7w0GwRC-15" value="| + &lt;span class=&quot;hljs-built_in&quot;&gt;Carta&lt;/span&gt;(palo: String, valor: String) |&lt;br/&gt;| + &lt;span class=&quot;hljs-built_in&quot;&gt;getPalo&lt;/span&gt;(): String              |&lt;br/&gt;| + &lt;span class=&quot;hljs-built_in&quot;&gt;getValor&lt;/span&gt;(): String             |&lt;br/&gt;| + &lt;span class=&quot;hljs-built_in&quot;&gt;setPalo&lt;/span&gt;(palo: String): void    |&lt;br/&gt;| + &lt;span class=&quot;hljs-built_in&quot;&gt;setValor&lt;/span&gt;(valor: String): void  |" style="text;strokeColor=none;fillColor=none;align=left;verticalAlign=top;spacingLeft=4;spacingRight=4;overflow=hidden;rotatable=0;points=[[0,0.5],[1,0.5]];portConstraint=eastwest;whiteSpace=wrap;html=1;" parent="MwxW_SRy3hBTs7w0GwRC-12" vertex="1">
          <mxGeometry y="88" width="210" height="122" as="geometry" />
        </mxCell>
        <mxCell id="MwxW_SRy3hBTs7w0GwRC-16" value="Rectangulo" style="swimlane;fontStyle=1;align=center;verticalAlign=top;childLayout=stackLayout;horizontal=1;startSize=26;horizontalStack=0;resizeParent=1;resizeParentMax=0;resizeLast=0;collapsible=1;marginBottom=0;whiteSpace=wrap;html=1;" parent="WIyWlLk6GJQsqaUBKTNV-1" vertex="1">
          <mxGeometry x="870" y="290" width="480" height="320" as="geometry" />
        </mxCell>
        <mxCell id="MwxW_SRy3hBTs7w0GwRC-17" value="| - ancho: &lt;span class=&quot;hljs-keyword&quot;&gt;double&lt;/span&gt;                        |&lt;br/&gt;| - alto: &lt;span class=&quot;hljs-keyword&quot;&gt;double&lt;/span&gt;                         |&lt;br/&gt;| - colorFondo: String                   |&lt;br/&gt;| - colorLados: String                   |" style="text;strokeColor=none;fillColor=none;align=left;verticalAlign=top;spacingLeft=4;spacingRight=4;overflow=hidden;rotatable=0;points=[[0,0.5],[1,0.5]];portConstraint=eastwest;whiteSpace=wrap;html=1;" parent="MwxW_SRy3hBTs7w0GwRC-16" vertex="1">
          <mxGeometry y="26" width="480" height="74" as="geometry" />
        </mxCell>
        <mxCell id="MwxW_SRy3hBTs7w0GwRC-18" value="" style="line;strokeWidth=1;fillColor=none;align=left;verticalAlign=middle;spacingTop=-1;spacingLeft=3;spacingRight=3;rotatable=0;labelPosition=right;points=[];portConstraint=eastwest;strokeColor=inherit;" parent="MwxW_SRy3hBTs7w0GwRC-16" vertex="1">
          <mxGeometry y="100" width="480" height="8" as="geometry" />
        </mxCell>
        <mxCell id="MwxW_SRy3hBTs7w0GwRC-19" value="| + &lt;span class=&quot;hljs-title function_ invoke__&quot;&gt;Rectangulo&lt;/span&gt;(&lt;span class=&quot;hljs-attr&quot;&gt;ancho&lt;/span&gt;: &lt;span class=&quot;hljs-keyword&quot;&gt;double&lt;/span&gt;, &lt;span class=&quot;hljs-attr&quot;&gt;alto&lt;/span&gt;: &lt;span class=&quot;hljs-keyword&quot;&gt;double&lt;/span&gt;, &lt;span class=&quot;hljs-attr&quot;&gt;colorFondo&lt;/span&gt;: String, &lt;span class=&quot;hljs-attr&quot;&gt;colorLados&lt;/span&gt;: String) |&lt;br/&gt;| + &lt;span class=&quot;hljs-title function_ invoke__&quot;&gt;setAncho&lt;/span&gt;(&lt;span class=&quot;hljs-attr&quot;&gt;ancho&lt;/span&gt;: &lt;span class=&quot;hljs-keyword&quot;&gt;double&lt;/span&gt;): &lt;span class=&quot;hljs-keyword&quot;&gt;void&lt;/span&gt;         |&lt;br/&gt;| + &lt;span class=&quot;hljs-title function_ invoke__&quot;&gt;setAlto&lt;/span&gt;(&lt;span class=&quot;hljs-attr&quot;&gt;alto&lt;/span&gt;: &lt;span class=&quot;hljs-keyword&quot;&gt;double&lt;/span&gt;): &lt;span class=&quot;hljs-keyword&quot;&gt;void&lt;/span&gt;           |&lt;br/&gt;| + &lt;span class=&quot;hljs-title function_ invoke__&quot;&gt;setColorFondo&lt;/span&gt;(&lt;span class=&quot;hljs-attr&quot;&gt;colorFondo&lt;/span&gt;: String): &lt;span class=&quot;hljs-keyword&quot;&gt;void&lt;/span&gt;|&lt;br/&gt;| + &lt;span class=&quot;hljs-title function_ invoke__&quot;&gt;setColorLados&lt;/span&gt;(&lt;span class=&quot;hljs-attr&quot;&gt;colorLados&lt;/span&gt;: String): &lt;span class=&quot;hljs-keyword&quot;&gt;void&lt;/span&gt;|&lt;br/&gt;| + &lt;span class=&quot;hljs-title function_ invoke__&quot;&gt;getAncho&lt;/span&gt;(): &lt;span class=&quot;hljs-keyword&quot;&gt;double&lt;/span&gt;                   |&lt;br/&gt;| + &lt;span class=&quot;hljs-title function_ invoke__&quot;&gt;getAlto&lt;/span&gt;(): &lt;span class=&quot;hljs-keyword&quot;&gt;double&lt;/span&gt;                    |&lt;br/&gt;| + &lt;span class=&quot;hljs-title function_ invoke__&quot;&gt;getColorFondo&lt;/span&gt;(): String              |&lt;br/&gt;| + &lt;span class=&quot;hljs-title function_ invoke__&quot;&gt;getColorLados&lt;/span&gt;(): String              |&lt;br/&gt;| + &lt;span class=&quot;hljs-title function_ invoke__&quot;&gt;cambiarTamaño&lt;/span&gt;(&lt;span class=&quot;hljs-attr&quot;&gt;ancho&lt;/span&gt;: &lt;span class=&quot;hljs-keyword&quot;&gt;double&lt;/span&gt;, &lt;span class=&quot;hljs-attr&quot;&gt;alto&lt;/span&gt;: &lt;span class=&quot;hljs-keyword&quot;&gt;double&lt;/span&gt;): &lt;span class=&quot;hljs-keyword&quot;&gt;void&lt;/span&gt; |&lt;br/&gt;| + &lt;span class=&quot;hljs-title function_ invoke__&quot;&gt;cambiarColorFondo&lt;/span&gt;(&lt;span class=&quot;hljs-attr&quot;&gt;colorFondo&lt;/span&gt;: String): &lt;span class=&quot;hljs-keyword&quot;&gt;void&lt;/span&gt; |&lt;br/&gt;| + &lt;span class=&quot;hljs-title function_ invoke__&quot;&gt;cambiarColorLados&lt;/span&gt;(&lt;span class=&quot;hljs-attr&quot;&gt;colorLados&lt;/span&gt;: String): &lt;span class=&quot;hljs-keyword&quot;&gt;void&lt;/span&gt; |&lt;br/&gt;| + &lt;span class=&quot;hljs-title function_ invoke__&quot;&gt;dibujar&lt;/span&gt;(): &lt;span class=&quot;hljs-keyword&quot;&gt;void&lt;/span&gt;                      |" style="text;strokeColor=none;fillColor=none;align=left;verticalAlign=top;spacingLeft=4;spacingRight=4;overflow=hidden;rotatable=0;points=[[0,0.5],[1,0.5]];portConstraint=eastwest;whiteSpace=wrap;html=1;" parent="MwxW_SRy3hBTs7w0GwRC-16" vertex="1">
          <mxGeometry y="108" width="480" height="212" as="geometry" />
        </mxCell>
        <mxCell id="MwxW_SRy3hBTs7w0GwRC-21" value="Luz" style="swimlane;fontStyle=1;align=center;verticalAlign=top;childLayout=stackLayout;horizontal=1;startSize=26;horizontalStack=0;resizeParent=1;resizeParentMax=0;resizeLast=0;collapsible=1;marginBottom=0;whiteSpace=wrap;html=1;" parent="WIyWlLk6GJQsqaUBKTNV-1" vertex="1">
          <mxGeometry x="30" y="620" width="160" height="130" as="geometry" />
        </mxCell>
        <mxCell id="MwxW_SRy3hBTs7w0GwRC-22" value="| - color: String                   |" style="text;strokeColor=none;fillColor=none;align=left;verticalAlign=top;spacingLeft=4;spacingRight=4;overflow=hidden;rotatable=0;points=[[0,0.5],[1,0.5]];portConstraint=eastwest;whiteSpace=wrap;html=1;" parent="MwxW_SRy3hBTs7w0GwRC-21" vertex="1">
          <mxGeometry y="26" width="160" height="26" as="geometry" />
        </mxCell>
        <mxCell id="MwxW_SRy3hBTs7w0GwRC-23" value="" style="line;strokeWidth=1;fillColor=none;align=left;verticalAlign=middle;spacingTop=-1;spacingLeft=3;spacingRight=3;rotatable=0;labelPosition=right;points=[];portConstraint=eastwest;strokeColor=inherit;" parent="MwxW_SRy3hBTs7w0GwRC-21" vertex="1">
          <mxGeometry y="52" width="160" height="8" as="geometry" />
        </mxCell>
        <mxCell id="MwxW_SRy3hBTs7w0GwRC-24" value="| + Luz()                           |&lt;br/&gt;| + cambio(): void                  |&lt;br/&gt;&lt;span class=&quot;hljs-section&quot;&gt;| + getColor(): String              |&lt;/span&gt;" style="text;strokeColor=none;fillColor=none;align=left;verticalAlign=top;spacingLeft=4;spacingRight=4;overflow=hidden;rotatable=0;points=[[0,0.5],[1,0.5]];portConstraint=eastwest;whiteSpace=wrap;html=1;" parent="MwxW_SRy3hBTs7w0GwRC-21" vertex="1">
          <mxGeometry y="60" width="160" height="70" as="geometry" />
        </mxCell>
        <mxCell id="MwxW_SRy3hBTs7w0GwRC-25" value="Empleado" style="swimlane;fontStyle=1;align=center;verticalAlign=top;childLayout=stackLayout;horizontal=1;startSize=26;horizontalStack=0;resizeParent=1;resizeParentMax=0;resizeLast=0;collapsible=1;marginBottom=0;whiteSpace=wrap;html=1;" parent="WIyWlLk6GJQsqaUBKTNV-1" vertex="1">
          <mxGeometry x="370" y="610" width="390" height="230" as="geometry" />
        </mxCell>
        <mxCell id="MwxW_SRy3hBTs7w0GwRC-26" value="| - id: &lt;span class=&quot;hljs-keyword&quot;&gt;int&lt;/span&gt;                                           |&lt;br/&gt;| - salario: &lt;span class=&quot;hljs-keyword&quot;&gt;double&lt;/span&gt;                                  |&lt;br/&gt;| - horasMaxSemanal: &lt;span class=&quot;hljs-keyword&quot;&gt;int&lt;/span&gt;                             |&lt;br/&gt;| - altaSeguridadSocial: &lt;span class=&quot;hljs-keyword&quot;&gt;boolean&lt;/span&gt;                     |&lt;br/&gt;| - altaSeguros: &lt;span class=&quot;hljs-keyword&quot;&gt;boolean&lt;/span&gt;                             |" style="text;strokeColor=none;fillColor=none;align=left;verticalAlign=top;spacingLeft=4;spacingRight=4;overflow=hidden;rotatable=0;points=[[0,0.5],[1,0.5]];portConstraint=eastwest;whiteSpace=wrap;html=1;" parent="MwxW_SRy3hBTs7w0GwRC-25" vertex="1">
          <mxGeometry y="26" width="390" height="84" as="geometry" />
        </mxCell>
        <mxCell id="MwxW_SRy3hBTs7w0GwRC-27" value="" style="line;strokeWidth=1;fillColor=none;align=left;verticalAlign=middle;spacingTop=-1;spacingLeft=3;spacingRight=3;rotatable=0;labelPosition=right;points=[];portConstraint=eastwest;strokeColor=inherit;" parent="MwxW_SRy3hBTs7w0GwRC-25" vertex="1">
          <mxGeometry y="110" width="390" height="8" as="geometry" />
        </mxCell>
        <mxCell id="MwxW_SRy3hBTs7w0GwRC-28" value="| + &lt;span class=&quot;hljs-title function_ invoke__&quot;&gt;Empleado&lt;/span&gt;(&lt;span class=&quot;hljs-attr&quot;&gt;id&lt;/span&gt;: &lt;span class=&quot;hljs-keyword&quot;&gt;int&lt;/span&gt;, &lt;span class=&quot;hljs-attr&quot;&gt;salario&lt;/span&gt;: &lt;span class=&quot;hljs-keyword&quot;&gt;double&lt;/span&gt;, &lt;span class=&quot;hljs-attr&quot;&gt;horasMaxSemanal&lt;/span&gt;: &lt;span class=&quot;hljs-keyword&quot;&gt;int&lt;/span&gt;) |&lt;br/&gt;| + &lt;span class=&quot;hljs-title function_ invoke__&quot;&gt;ingresarDatos&lt;/span&gt;(&lt;span class=&quot;hljs-attr&quot;&gt;id&lt;/span&gt;: &lt;span class=&quot;hljs-keyword&quot;&gt;int&lt;/span&gt;, &lt;span class=&quot;hljs-attr&quot;&gt;salario&lt;/span&gt;: &lt;span class=&quot;hljs-keyword&quot;&gt;double&lt;/span&gt;, &lt;span class=&quot;hljs-attr&quot;&gt;horasMaxSemanal&lt;/span&gt;: &lt;span class=&quot;hljs-keyword&quot;&gt;int&lt;/span&gt;): &lt;span class=&quot;hljs-keyword&quot;&gt;void&lt;/span&gt; |&lt;br/&gt;| + &lt;span class=&quot;hljs-title function_ invoke__&quot;&gt;visualizarDatos&lt;/span&gt;(): &lt;span class=&quot;hljs-keyword&quot;&gt;void&lt;/span&gt;                          |&lt;br/&gt;| + &lt;span class=&quot;hljs-title function_ invoke__&quot;&gt;altaEnSeguridadSocial&lt;/span&gt;(): &lt;span class=&quot;hljs-keyword&quot;&gt;void&lt;/span&gt;                    |&lt;br/&gt;| + &lt;span class=&quot;hljs-title function_ invoke__&quot;&gt;bajaEnSeguridadSocial&lt;/span&gt;(): &lt;span class=&quot;hljs-keyword&quot;&gt;void&lt;/span&gt;                    |&lt;br/&gt;| + &lt;span class=&quot;hljs-title function_ invoke__&quot;&gt;altaEnSeguros&lt;/span&gt;(): &lt;span class=&quot;hljs-keyword&quot;&gt;void&lt;/span&gt;                           |&lt;br/&gt;| + &lt;span class=&quot;hljs-title function_ invoke__&quot;&gt;bajaEnSeguros&lt;/span&gt;(): &lt;span class=&quot;hljs-keyword&quot;&gt;void&lt;/span&gt;                           |" style="text;strokeColor=none;fillColor=none;align=left;verticalAlign=top;spacingLeft=4;spacingRight=4;overflow=hidden;rotatable=0;points=[[0,0.5],[1,0.5]];portConstraint=eastwest;whiteSpace=wrap;html=1;" parent="MwxW_SRy3hBTs7w0GwRC-25" vertex="1">
          <mxGeometry y="118" width="390" height="112" as="geometry" />
        </mxCell>
        <mxCell id="MwxW_SRy3hBTs7w0GwRC-29" value="Fecha" style="swimlane;fontStyle=1;align=center;verticalAlign=top;childLayout=stackLayout;horizontal=1;startSize=26;horizontalStack=0;resizeParent=1;resizeParentMax=0;resizeLast=0;collapsible=1;marginBottom=0;whiteSpace=wrap;html=1;" parent="WIyWlLk6GJQsqaUBKTNV-1" vertex="1">
          <mxGeometry x="870" y="640" width="340" height="270" as="geometry" />
        </mxCell>
        <mxCell id="MwxW_SRy3hBTs7w0GwRC-30" value="| - dia: &lt;span class=&quot;hljs-keyword&quot;&gt;int&lt;/span&gt;                              |&lt;br/&gt;| - mes: &lt;span class=&quot;hljs-keyword&quot;&gt;int&lt;/span&gt;                              |&lt;br/&gt;| - anio: &lt;span class=&quot;hljs-keyword&quot;&gt;int&lt;/span&gt;                             |" style="text;strokeColor=none;fillColor=none;align=left;verticalAlign=top;spacingLeft=4;spacingRight=4;overflow=hidden;rotatable=0;points=[[0,0.5],[1,0.5]];portConstraint=eastwest;whiteSpace=wrap;html=1;" parent="MwxW_SRy3hBTs7w0GwRC-29" vertex="1">
          <mxGeometry y="26" width="340" height="54" as="geometry" />
        </mxCell>
        <mxCell id="MwxW_SRy3hBTs7w0GwRC-31" value="" style="line;strokeWidth=1;fillColor=none;align=left;verticalAlign=middle;spacingTop=-1;spacingLeft=3;spacingRight=3;rotatable=0;labelPosition=right;points=[];portConstraint=eastwest;strokeColor=inherit;" parent="MwxW_SRy3hBTs7w0GwRC-29" vertex="1">
          <mxGeometry y="80" width="340" height="8" as="geometry" />
        </mxCell>
        <mxCell id="MwxW_SRy3hBTs7w0GwRC-32" value="| + &lt;span class=&quot;hljs-title function_ invoke__&quot;&gt;Fecha&lt;/span&gt;(&lt;span class=&quot;hljs-attr&quot;&gt;dia&lt;/span&gt;: &lt;span class=&quot;hljs-keyword&quot;&gt;int&lt;/span&gt;, &lt;span class=&quot;hljs-attr&quot;&gt;mes&lt;/span&gt;: &lt;span class=&quot;hljs-keyword&quot;&gt;int&lt;/span&gt;, &lt;span class=&quot;hljs-attr&quot;&gt;anio&lt;/span&gt;: &lt;span class=&quot;hljs-keyword&quot;&gt;int&lt;/span&gt;)  |&lt;br/&gt;| + &lt;span class=&quot;hljs-title function_ invoke__&quot;&gt;getDia&lt;/span&gt;(): &lt;span class=&quot;hljs-keyword&quot;&gt;int&lt;/span&gt;                         |&lt;br/&gt;| + &lt;span class=&quot;hljs-title function_ invoke__&quot;&gt;getMes&lt;/span&gt;(): &lt;span class=&quot;hljs-keyword&quot;&gt;int&lt;/span&gt;                         |&lt;br/&gt;| + &lt;span class=&quot;hljs-title function_ invoke__&quot;&gt;getAnio&lt;/span&gt;(): &lt;span class=&quot;hljs-keyword&quot;&gt;int&lt;/span&gt;                        |&lt;br/&gt;| + &lt;span class=&quot;hljs-title function_ invoke__&quot;&gt;setDia&lt;/span&gt;(&lt;span class=&quot;hljs-attr&quot;&gt;dia&lt;/span&gt;: &lt;span class=&quot;hljs-keyword&quot;&gt;int&lt;/span&gt;): &lt;span class=&quot;hljs-keyword&quot;&gt;void&lt;/span&gt;                |&lt;br/&gt;| + &lt;span class=&quot;hljs-title function_ invoke__&quot;&gt;setMes&lt;/span&gt;(&lt;span class=&quot;hljs-attr&quot;&gt;mes&lt;/span&gt;: &lt;span class=&quot;hljs-keyword&quot;&gt;int&lt;/span&gt;): &lt;span class=&quot;hljs-keyword&quot;&gt;void&lt;/span&gt;                |&lt;br/&gt;| + &lt;span class=&quot;hljs-title function_ invoke__&quot;&gt;setAnio&lt;/span&gt;(&lt;span class=&quot;hljs-attr&quot;&gt;anio&lt;/span&gt;: &lt;span class=&quot;hljs-keyword&quot;&gt;int&lt;/span&gt;): &lt;span class=&quot;hljs-keyword&quot;&gt;void&lt;/span&gt;              |&lt;br/&gt;| + &lt;span class=&quot;hljs-title function_ invoke__&quot;&gt;esFechaValida&lt;/span&gt;(): &lt;span class=&quot;hljs-keyword&quot;&gt;boolean&lt;/span&gt;              |&lt;br/&gt;| + &lt;span class=&quot;hljs-title function_ invoke__&quot;&gt;calcularDiferencia&lt;/span&gt;(&lt;span class=&quot;hljs-attr&quot;&gt;fecha&lt;/span&gt;: Fecha): &lt;span class=&quot;hljs-keyword&quot;&gt;int&lt;/span&gt; |&lt;br/&gt;| + &lt;span class=&quot;hljs-title function_ invoke__&quot;&gt;fechaMasProxima&lt;/span&gt;(&lt;span class=&quot;hljs-attr&quot;&gt;fecha1&lt;/span&gt;: Fecha, &lt;span class=&quot;hljs-attr&quot;&gt;fecha2&lt;/span&gt;: Fecha): Fecha |&lt;br/&gt;| + &lt;span class=&quot;hljs-title function_ invoke__&quot;&gt;mostrarFecha&lt;/span&gt;(): String               |" style="text;strokeColor=none;fillColor=none;align=left;verticalAlign=top;spacingLeft=4;spacingRight=4;overflow=hidden;rotatable=0;points=[[0,0.5],[1,0.5]];portConstraint=eastwest;whiteSpace=wrap;html=1;" parent="MwxW_SRy3hBTs7w0GwRC-29" vertex="1">
          <mxGeometry y="88" width="340" height="182" as="geometry" />
        </mxCell>
      </root>
    </mxGraphModel>
  </diagram>
</mxfile>
